<svg xmlns="http://www.w3.org/2000/svg" width="64pt" height="64pt" viewBox="0 0 64 64" style="isolation:isolate" id="message">
    <defs>
        <clipPath id="a">
            <rect width="64" height="64"></rect>
        </clipPath>
    </defs>
    <g clip-path="url(#a)">
        <path d=" M 59.277 8.849 L 4.723 8.849 C 3.62 8.849 3.454 9.368 4.354 10.007 L 30.543 28.594 C 31.347 29.418 32.653 29.418 33.457 28.594 L 59.646 10.007 C 60.546 9.368 60.38 8.849 59.277 8.849 Z " fill="#e7e9ea"></path>
        <path d=" M 62 14 L 62 48.25 C 62 50.32 60.32 52 58.25 52 L 5.75 52 C 3.68 52 2 50.32 2 48.25 L 2 14 C 2 12.896 2.728 12.523 3.625 13.166 L 30.543 32.486 C 31.347 33.311 32.653 33.311 33.457 32.486 L 60.375 13.166 C 61.272 12.523 62 12.896 62 14 Z " fill="#e7e9ea"></path>
    </g>
</svg>
